inDegrees=no
num_controls=7
num_derivatives=13
num_iterations=86
num_multipliers=7
num_parameters=0
num_slacks=7
num_states=26
objective=0.445954
objective_accelerations=0.056624
objective_balance=0.003054
objective_effort=0.022150
objective_height=0.358617
objective_ligament=0.005510
solver_duration=1178.404795
status=Solve_Succeeded
success=true
DataType=double
version=3
OpenSimVersion=4.5
endheader
time	/jointset/ground_pelvis/pelvis_tilt/value	/jointset/ground_pelvis/pelvis_tx/value	/jointset/ground_pelvis/pelvis_ty/value	/jointset/hip_l/hip_flexion_l/value	/jointset/hip_l/hip_adduction_l/value	/jointset/hip_l/hip_rotation_l/value	/jointset/back/lumbar_extension/value	/jointset/patellofemoral_l/patellar_flexion_l/value	/jointset/knee_l/knee_flexion_l/value	/jointset/knee_l/knee_adduction_l/value	/jointset/knee_l/knee_rotation_l/value	/jointset/ankle_l/ankle_angle_l/value	/jointset/subtalar_l/subtalar_angle_l/value	/jointset/ground_pelvis/pelvis_tilt/speed	/jointset/ground_pelvis/pelvis_tx/speed	/jointset/ground_pelvis/pelvis_ty/speed	/jointset/hip_l/hip_flexion_l/speed	/jointset/hip_l/hip_adduction_l/speed	/jointset/hip_l/hip_rotation_l/speed	/jointset/back/lumbar_extension/speed	/jointset/patellofemoral_l/patellar_flexion_l/speed	/jointset/knee_l/knee_flexion_l/speed	/jointset/knee_l/knee_adduction_l/speed	/jointset/knee_l/knee_rotation_l/speed	/jointset/ankle_l/ankle_angle_l/speed	/jointset/subtalar_l/subtalar_angle_l/speed	/forceset/tau_hip_flexion_l	/forceset/tau_hip_adduction_l	/forceset/tau_hip_rotation_l	/forceset/tau_knee_flexion_l	/forceset/tau_ankle_angle_l	/forceset/tau_subtalar_angle_l	/forceset/tau_lumbar_extension	lambda_cid13_p0	lambda_cid13_p1	lambda_cid13_p2	lambda_cid13_p3	lambda_cid13_p4	lambda_cid13_p5	lambda_cid14_p0	/jointset/ground_pelvis/pelvis_tilt/accel	/jointset/ground_pelvis/pelvis_tx/accel	/jointset/ground_pelvis/pelvis_ty/accel	/jointset/hip_l/hip_flexion_l/accel	/jointset/hip_l/hip_adduction_l/accel	/jointset/hip_l/hip_rotation_l/accel	/jointset/back/lumbar_extension/accel	/jointset/patellofemoral_l/patellar_flexion_l/accel	/jointset/knee_l/knee_flexion_l/accel	/jointset/knee_l/knee_adduction_l/accel	/jointset/knee_l/knee_rotation_l/accel	/jointset/ankle_l/ankle_angle_l/accel	/jointset/subtalar_l/subtalar_angle_l/accel	gamma_cid13_p0	gamma_cid13_p1	gamma_cid13_p2	gamma_cid13_p3	gamma_cid13_p4	gamma_cid13_p5	gamma_cid14_p0
0	-0.0378908333999223	0.06819161363572206	0.8958864634828527	0.1955287580552426	-0.3226755570771094	-0.4697703654959526	-0.1379045077516729	0.07015288079087822	0.07015288079084844	-0.174512964546639	-0.1049181243781585	-0.06701059314715049	0.002945656455624718	0	0	0	0	0	0	0	0	0	0	0	0	0	0.1087642315976416	-0.09588793085978715	-0.02996237260690975	-0.2485654000683348	0.2230851503583574	-0.02240752433299287	-0.05161977956383922	35.94390561862181	1.196757562461281	2.033405128241957	-10.61475372051997	-515.3522258894864	-73.0656078141995	-39.58060133288001	-3.780418144926999	-1.531124020962106	-0.9177286054254855	11.71136649136849	-2.093769099475251	2.695684282076939	-3.019052834415309	10.79904074893932	10.79904074893975	0.8141785593566708	-1.592151247213922	3.051094360144447	-0.6298715961945178	2.74378578015764e-08	-4.213903364491879e-07	3.528063990839999e-08	-1.096666441078085e-07	4.693813284544445e-08	-1.142551621171005e-07	-4.139683461234882e-08
0.01	-0.03807479585742225	0.06811535334057379	0.8958416851322354	0.1960992118065807	-0.3227779382745194	-0.469627789621439	-0.1380592601403258	0.07067428232057231	0.07067428232085006	-0.1744752455960815	-0.1049835736990148	-0.06686589380941454	0.002912283679482936	-0.03708809395107704	-0.01526263931752228	-0.008954945962550085	0.1140682897201306	-0.02030763611032882	0.02908203300502294	-0.0305041737740933	0.1034555652873449	0.1034555652873455	0.007565730583165468	-0.01225389755181026	0.02854400608453288	-0.006715558906415303	0.1068500717735287	-0.09590921091184162	-0.02942300951257464	-0.2457162162928486	0.2173290372022293	-0.02013527286260657	-0.04998340250062328	34.0849914717048	0.5203107197480739	2.158485572956581	-9.107546765608717	-516.6003935810847	-74.86102867636747	-39.59183129822907	-3.717331854656091	-1.525442867150598	-0.8842595799906118	11.25120677537056	-1.973916419681217	3.099464985560874	-2.999154051327135	9.995111593503234	9.995111593503148	0.7309989213819781	-0.9165820417833423	2.696670912707654	-0.6984871826010435	-4.971271326454248e-08	1.680134006735567e-08	1.867325740895554e-07	1.965871797920235e-08	-2.280645980021381e-07	-1.328343870553018e-07	-1.755372466414079e-08
0.02	-0.03863850462144467	0.06788614485624565	0.8957073809243195	0.1978096777676306	-0.3230783269436004	-0.469177392981734	-0.1385056651472616	0.07220549893858966	0.07220549893858468	-0.174361223615705	-0.1051464766010036	-0.06644763097482612	0.002810537485329093	-0.07594926128018341	-0.03058963783597603	-0.0179051714597346	0.2280024419615729	-0.03960149433548865	0.06156415304390891	-0.05833052364478875	0.2019630175695086	0.2019630175695077	0.01526060570979871	-0.01949071640845531	0.05471269937302056	-0.01367468360225928	0.1049359119493431	-0.09593049096354717	-0.02888364642340465	-0.2428670325165355	0.2115729240462936	-0.01786302139168139	-0.04834702543775647	32.29162010217856	-0.1696651173166148	2.288069016432623	-7.784616263361859	-516.9046145193297	-76.4906365799056	-39.62388353008946	-4.135032820531356	-1.543995861149649	-0.9167845123524163	11.6845389956307	-1.891013522442032	3.375701688849488	-2.483488053734515	9.809418147903203	9.809418147903209	0.840007468048926	-0.5887355081812138	2.576031800933816	-0.6785847540817314	-1.268632843306613e-07	4.549930165838992e-07	3.381845082707109e-07	1.489840800662132e-07	-5.030673288497206e-07	-1.514136119935031e-07	6.289385284067247e-09
0.03	-0.0395925989364902	0.06750492960269004	0.8954837657163195	0.2006516692504627	-0.3235675039768624	-0.468395745013428	-0.1392195428174353	0.07470353093978542	0.07470353093963461	-0.1741699041227179	-0.1053687356880825	-0.06577452991949301	0.002639831491586094	-0.1143884584411755	-0.04550273954199716	-0.02679074014708056	0.3395355923740713	-0.05815909773086372	0.09427544733928682	-0.08432824837477078	0.2973909799320188	0.297390979932021	0.02295837031134934	-0.02530517232079313	0.07998371594840696	-0.02034126825555269	0.09943112731710645	-0.0935893728496946	-0.02804830348067892	-0.2378002772441566	0.2059492217049911	-0.0160304290033411	-0.04368619970233482	30.62192010531543	-0.7211015311530772	2.430689172667866	-7.941750948178132	-516.6574410857379	-76.9251538876818	-39.67431351858376	-3.626214690196051	-1.44233600955306	-0.8704752724805076	10.75863169970931	-1.827015032752628	3.145312940093099	-2.640400377219942	9.371623517768889	9.371623517769201	0.728040264420062	-0.6293865983461679	2.514071000093166	-0.642019482354043	-1.235385921764686e-07	3.107673742562891e-07	2.962066020845878e-07	1.363286311204836e-07	-6.412461683925082e-07	-1.657394850724275e-07	1.044420402402896e-09
0.04	-0.04091665552850909	0.06697910959522571	0.8951720883763271	0.2045831779645602	-0.3242400333010071	-0.4673016901741692	-0.1401898948738493	0.0781482702119508	0.07814827021194555	-0.1739029311222667	-0.1056594565276796	-0.06484643181556167	0.002406194819029223	-0.1499417166543565	-0.05951058861771936	-0.03551759785820665	0.4459058882125333	-0.07627195251293743	0.1240455272430659	-0.1096254008881327	0.3913044717882647	0.3913044717882652	0.03039130724141234	-0.03318306685658431	0.1057121090938486	-0.02626081936487332	0.09392634268584932	-0.09124825473568692	-0.02721296053637598	-0.2327335219715706	0.2003255193638838	-0.01419783661474472	-0.03902537396630888	29.01136269878596	-1.283236093889391	2.575406874657515	-8.265197594858375	-515.5590981598991	-77.20295916831351	-39.74193056167092	-3.557845030967416	-1.36294533509113	-0.8850423171084355	10.65196808082357	-1.802063799781751	2.78745881052967	-2.343373610409262	9.506524046650458	9.506524046649494	0.7870419337513388	-1.001423232872183	2.667507114943403	-0.5291780452879793	-1.185546162445374e-07	1.545331274164281e-07	2.502404517671805e-07	1.20745742772017e-07	-7.766038967743722e-07	-1.799776601748719e-07	-4.800298599465018e-09
